<?xml version="1.0" encoding="utf-8"?>
<!-- Generator: Adobe Illustrator 18.1.1, SVG Export Plug-In . SVG Version: 6.00 Build 0)  -->
<svg version="1.1" id="Layer_1" xmlns="http://www.w3.org/2000/svg" xmlns:xlink="http://www.w3.org/1999/xlink" x="0px" y="0px"
	 viewBox="0 0 1000 1000" enable-background="new 0 0 1000 1000" xml:space="preserve">
<g>
	<path fill="#92FFFF" d="M93.6,493.1c0,1.7-0.3,1.7-1.7,1.7H68.5c-1.7,0-1.7-0.3-1.7-1.7v-43.3c0-1.7-0.3-1.7-1.7-1.7H29.2
		c-1.7,0-1.7,0.3-1.7,1.7v43.3c0,1.7-0.3,1.7-1.7,1.7H1.7c-1.7,0-1.7-0.3-1.7-1.7V366.2c0-1.7,0.3-2.1,1.7-2.1h23.4
		c1.7,0,1.7,0.3,1.7,1.7v55.7c0,1.7,0.3,1.7,1.7,1.7H64c1.7,0,1.7-0.3,1.7-1.7v-55.4c0-1.7,0.3-1.7,1.7-1.7h23.4
		c1.7,0,1.7,0.3,1.7,1.7v126.9H93.6z"/>
	<path fill="#92FFFF" d="M175.8,497.2c-36.8,0-66-31-66-67.8s28.9-67.8,66-67.8c36.8,0,66,31,66,67.8S212.6,497.2,175.8,497.2z
		 M175.8,470.1c22.4,0,37.5-18.6,37.5-40.6c0-22-15.5-40.6-37.5-40.6s-37.5,18.6-37.5,40.6C138.3,451.5,153.4,470.1,175.8,470.1z"/>
	<path fill="#92FFFF" d="M320.6,469.7c-0.7,0.7-1.4,1-1.7,1s-1.4-0.3-1.7-1l-29.9-36.8c-0.3-0.3-1-0.7-1.4-0.7c-0.7,0-1.4,0.7-1.4,1
		v59.5c0,1.7-0.3,1.7-1.7,1.7h-22.4c-1.7,0-1.7-0.3-1.7-1.7V362.1c-0.7-0.3,0-1,0.7-1c0.3,0,1,0,1.7,1l56.4,68.8
		c0.7,0.7,0.7,0.7,1,0.7s0.7-0.3,1-0.7l56.4-68.8c1-1,1.4-1,1.7-1c0.7,0,1,0.7,1,1.4v130.7c0,1.7-0.3,1.7-1.7,1.7h-22.4
		c-1.7,0-1.7-0.3-1.7-1.7v-59.5c0-0.7-0.7-1-1.4-1c-0.3,0-1,0.3-1.4,0.7L320.6,469.7z"/>
	<path fill="#92FFFF" d="M401.4,366.2c0-1.7,0.3-1.7,1.7-1.7h76c1.7,0,1.7,0.3,1.7,1.7v21c0,1.7-0.3,1.7-1.7,1.7h-48.8
		c-1.7,0-1.7,0.3-1.7,1.7v30.3c0,1.7,0.3,1.7,1.7,1.7h47.1c1.7,0,1.7,0.3,1.7,1.7V445c0,1.7-0.3,1.7-1.7,1.7h-47.1
		c-1.7,0-1.7,0.3-1.7,1.7v19.3c0,1.7,0.3,1.7,1.7,1.7h49.9c1.7,0,1.7,0.3,1.7,1.7v21c0,1.7-0.3,1.7-1.7,1.7h-77.1
		c-1.7,0-1.7-0.3-1.7-1.7L401.4,366.2L401.4,366.2z"/>
	<path fill="#92FFFF" d="M538.4,472.8c9.3,0,16.2-5.5,16.2-13.4c0-24.1-55.7-20-55.7-60.9c0-20.6,17.2-36.5,42-36.5
		c15.8,0,32.3,6.9,40.2,18.6c0.3,0.7,0.7,1,0.7,1.4s-0.3,1-1,1.4l-18.2,13.8c-0.7,0.7-1,1-1.4,1c-0.7,0-0.7-0.3-1.4-1
		c-3.4-6.2-8.6-10.7-18.2-10.7c-8.6,0-14.1,5.2-14.1,12.4c0,21.3,56.4,17.5,56.4,60.5c0,22-15.8,38.2-45.1,38.2
		c-20.6,0-37.2-10.3-45.4-23c-0.3-0.7-0.7-1-0.7-1.4s0.3-0.7,1-1.4l18.6-14.1c0.7-0.7,1-0.7,1.4-0.7c0.7,0,0.7,0.3,1.4,1
		C521.5,467.7,528.4,472.8,538.4,472.8z"/>
	<path fill="#92FFFF" d="M588.6,366.2c0-1.7,0.3-1.7,1.7-1.7h81.2c1.7,0,1.7,0.3,1.7,1.7v21c0,1.7-0.3,1.7-1.7,1.7h-25.1
		c-1.7,0-1.7,0.3-1.7,1.7v102.2c0,1.7-0.3,1.7-1.7,1.7h-23.7c-1.7,0-1.7-0.3-1.7-1.7V390.6c0-1.7-0.3-1.7-1.7-1.7h-25.1
		c-1.7,0-1.7-0.3-1.7-1.7v-21H588.6z"/>
	<path fill="#92FFFF" d="M685.9,366.2c0-1.7,0.3-1.7,1.7-1.7h76c1.7,0,1.7,0.3,1.7,1.7v21c0,1.7-0.3,1.7-1.7,1.7h-48.8
		c-1.7,0-1.7,0.3-1.7,1.7v30.3c0,1.7,0.3,1.7,1.7,1.7H762c1.7,0,1.7,0.3,1.7,1.7V445c0,1.7-0.3,1.7-1.7,1.7h-47.1
		c-1.7,0-1.7,0.3-1.7,1.7v19.3c0,1.7,0.3,1.7,1.7,1.7h49.9c1.7,0,1.7,0.3,1.7,1.7v21c0,1.7-0.3,1.7-1.7,1.7H688
		c-1.7,0-1.7-0.3-1.7-1.7V366.2H685.9z"/>
	<path fill="#92FFFF" d="M828,362.1c0.3-0.7,1-1,2.1-1c1,0,1.4,0.3,1.7,1l54.4,130.7c0.3,0.3,0.3,1,0.3,1c0,0.7-0.3,0.7-1.4,0.7
		h-25.8c-1.4,0-1.7-0.3-2.4-1.7l-6.2-16.5c-0.7-1.7-1-1.7-2.1-1.7h-37.2c-1.4,0-1.7,0.3-2.4,1.7l-6.2,16.5c-0.7,1.4-1,1.7-2.4,1.7
		H775c-1,0-1.4-0.3-1.4-0.7s0.3-0.7,0.3-1L828,362.1z M830.8,418.5c-0.3-0.3-0.7-0.7-1-0.7c-0.3,0-1,0.3-1,0.7l-12,33.7
		c-0.3,0.3-0.3,0.7-0.3,1c0,0.7,0.3,0.7,1.4,0.7h24.4c1,0,1.4,0,1.4-0.7c0-0.3,0-0.7-0.3-1L830.8,418.5z"/>
	<path fill="#92FFFF" d="M934.6,364.1c43.7,0,63.6,28.9,63.6,65.4c0,39.6-23.4,65.4-69.5,65.4h-30.6c-1.7,0-1.7-0.3-1.7-1.7V366.2
		c0-1.7,0.3-1.7,1.7-1.7h36.5V364.1z M934,388.9h-8.6c-1.7,0-1.7,0.3-1.7,1.7v77.7c0,1.7,0.3,1.7,1.7,1.7h8.6
		c24.4,0,35.4-16.5,35.4-40.6C969.7,405.4,959.1,388.9,934,388.9z"/>
</g>
<g>
	<path fill="#92FFFF" d="M1.4,587c0-27.9,19.3-50.9,50.9-50.9c8.3,0,15.8,2.4,22.7,5.5c0.7,0.3,1,0.7,1,1.4v15.1c0,0.7,0,1-0.7,1
		c-0.3,0-0.7,0-0.7-0.3c-5.8-5.8-13.4-9.3-22.4-9.3c-23.4,0-35.8,18.2-35.8,37.2c0,19.3,12.4,37.2,35.8,37.2
		c9.3,0,16.9-3.4,22.4-9.3c0,0,0.3-0.3,0.7-0.3s0.7,0.3,0.7,1v15.1c0,0.7-0.3,1-1,1.4c-6.9,3.4-14.4,5.5-22.7,5.5
		C21,637.9,1.4,614.9,1.4,587z"/>
	<path fill="#92FFFF" d="M163.1,637.9c-27.9,0-49.5-23.4-49.5-50.9c0-27.9,21.7-50.9,49.5-50.9s49.5,23.4,49.5,50.9
		C212.6,614.9,190.9,637.9,163.1,637.9z M163.1,624.5c20,0,34.4-17.2,34.4-37.2s-14.4-37.2-34.4-37.2s-34.4,17.2-34.4,37.2
		C129,607.3,143.1,624.5,163.1,624.5z"/>
	<path fill="#92FFFF" d="M303.1,575c-0.3,0-0.7,0-0.7,0.3l-21.3,63c0,0.3-0.3,0.7-0.7,0.7s-0.7,0-0.7-0.7l-33-99.4
		c0-0.3-0.3-0.7-0.3-1c0-0.3,0.3-0.3,0.7-0.3h13.4c0.7,0,1.4,0.3,1.7,1.4l17.9,58.8c0,0.3,0.3,0.3,0.7,0.3c0.3,0,0.7,0,0.7-0.3
		l20.3-60.9c0.3-1,1-1.4,1.7-1.4s1.4,0.3,1.7,1.4l20.3,60.9c0,0.3,0.3,0.3,0.7,0.3s0.7,0,0.7-0.3l18.2-58.8c0.3-1,1-1.4,1.7-1.4
		h12.7c0.7,0,0.7,0,0.7,0.3s0,0.7-0.3,1l-33.7,99.4c0,0.3-0.3,0.7-0.7,0.7s-0.7,0-0.7-0.7l-21.3-63C303.4,575,303.4,575,303.1,575z"
		/>
	<path fill="#92FFFF" d="M443.1,637.9c-27.9,0-49.5-23.4-49.5-50.9c0-27.9,21.7-50.9,49.5-50.9c27.9,0,49.5,23.4,49.5,50.9
		C492.6,614.9,470.9,637.9,443.1,637.9z M443.1,624.5c20,0,34.4-17.2,34.4-37.2s-14.4-37.2-34.4-37.2s-34.4,17.2-34.4,37.2
		S423.1,624.5,443.1,624.5z"/>
	<path fill="#92FFFF" d="M549.4,636.6h-10.7c-1.4,0-1.7,0-1.7-1.4v-96.3c0-1.4,0-1.4,1.4-1.4h22.4c10.7,0,18.9,2.4,24.4,6.9
		c6.5,5.2,8.9,13.1,8.9,22.4c0,14.4-8.9,24.8-24.1,27.5c-0.3,0-0.7,0.3-0.7,0.7c0,0,0,0.3,0.3,0.7l30.6,39.9c0.3,0.7,0.7,1,0.7,1
		s-0.3,0.3-1.4,0.3h-14.1c-1.4,0-1,0-2.4-1.4l-31.6-41.3c-0.3-0.7-0.7-0.7-1-0.7c-0.3,0-0.7,0.3-0.7,1.4v40.9
		C550.7,636.6,550.7,636.6,549.4,636.6z M580.3,566.7c0-11.4-7.2-16.9-18.6-16.9h-9.6c-1.4,0-1.4,0-1.4,1.4v31c0,1.4,0,1.4,1.4,1.4
		h10C574.8,583.6,580.3,577.4,580.3,566.7z"/>
	<path fill="#92FFFF" d="M654.6,636.6h-11c-1.4,0-1.4,0-1.4-1.4v-96.3c0-1.4,0-1.4,1.4-1.4h11c1.4,0,1.4,0,1.4,1.4v39.6
		c0,0.7,0.3,1,0.7,1c0.7,0,1-0.3,1.4-0.7l31.3-39.9c1-1,1-1.4,2.4-1.4h14.8c0.7,0,1,0,1,0.3c0,0,0,0.3-0.7,1l-34.4,43.7
		c0,0-0.3,0.3-0.3,0.7s0,0.7,0.3,0.7l36.1,51.3c0.3,0.7,0.7,1,0.7,1s-0.3,0.3-1.4,0.3h-14.8c-1.4,0-1,0-2.4-1.4l-32.7-47.1
		c-0.3-0.3-0.7-0.7-1-0.7c-0.7,0-1,0.3-1,1v46.4C656,636.6,656,636.6,654.6,636.6z"/>
	<path fill="#92FFFF" d="M751.3,537.5h11c1.4,0,1.4,0,1.4,1.4v96.3c0,1.4,0,1.4-1.4,1.4h-11c-1.4,0-1.4,0-1.4-1.4v-96.3
		C749.9,537.8,749.9,537.5,751.3,537.5z"/>
	<path fill="#92FFFF" d="M826.3,575c-0.7,0-1,0.3-1,0.7v59.5c0,1.4,0,1.4-1.4,1.4h-10.3c-1.4,0-1.4,0-1.4-1.4v-98.7c0-0.7,0-1,0.3-1
		c0.3,0,0.7,0,1,0.7l47.8,62.6c0.3,0.3,0.7,0.3,1,0.3c0.7,0,1-0.3,1-0.7v-59.5c0-1.4,0-1.4,1.4-1.4h10.3c1.4,0,1.4,0,1.4,1.4v98.7
		c0,0.7,0,1-0.3,1c-0.3,0-0.7-0.3-1-0.7l-47.8-62.6C827,575,826.6,575,826.3,575z"/>
	<path fill="#92FFFF" d="M935.3,587c0,20,12,37.8,36.1,37.8c4.8,0,10.3-0.7,14.1-2.4c0.3,0,0.7-0.7,0.7-1v-24.1c0-1.4,0-1.4-1.4-1.4
		h-18.6c-1.4,0-1.4,0-1.4-1.4V585c0-1.4,0-1.4,1.4-1.4h32c1.4,0,1.4,0,1.4,1.4v44.4c0,0.7-0.3,1-0.7,1.7c-6.5,5.2-17.9,7.2-27.5,7.2
		c-32,0-51.6-23.4-51.6-50.9c0-27.9,19.3-50.9,50.9-50.9c8.9,0,16.2,1.7,23,5.5c0.7,0.3,1,0.7,1,1.4v15.1c0,0.7,0,1-0.7,1
		c-0.3,0-0.7,0-0.7-0.3c-5.8-5.8-13.8-9.3-23-9.3C947,549.9,935.3,567.4,935.3,587z"/>
</g>
</svg>
