<?xml version="1.0" encoding="utf-8"?>
<!-- Generator: Adobe Illustrator 18.1.0, SVG Export Plug-In . SVG Version: 6.00 Build 0)  -->
<!DOCTYPE svg PUBLIC "-//W3C//DTD SVG 1.1//EN" "http://www.w3.org/Graphics/SVG/1.1/DTD/svg11.dtd">
<svg version="1.1" id="Layer_1" xmlns="http://www.w3.org/2000/svg" xmlns:xlink="http://www.w3.org/1999/xlink" x="0px" y="0px"
	 viewBox="0 0 290.5 88.6" enable-background="new 0 0 290.5 88.6" xml:space="preserve">
<g>
	<path fill="#FFFFFF" d="M27.2,38.4c0,0.5-0.1,0.5-0.5,0.5h-6.8c-0.5,0-0.5-0.1-0.5-0.5V25.8c0-0.5-0.1-0.5-0.5-0.5H8.5
		c-0.5,0-0.5,0.1-0.5,0.5v12.6c0,0.5-0.1,0.5-0.5,0.5H0.5c-0.5,0-0.5-0.1-0.5-0.5V1.5C0,1,0.1,0.9,0.5,0.9h6.8
		c0.5,0,0.5,0.1,0.5,0.5v16.2c0,0.5,0.1,0.5,0.5,0.5h10.3c0.5,0,0.5-0.1,0.5-0.5V1.5c0-0.5,0.1-0.5,0.5-0.5h6.8
		c0.5,0,0.5,0.1,0.5,0.5V38.4z"/>
	<path fill="#FFFFFF" d="M51.1,39.6c-10.7,0-19.2-9-19.2-19.7S40.3,0.2,51.1,0.2c10.7,0,19.2,9,19.2,19.7S61.8,39.6,51.1,39.6z
		 M51.1,31.7c6.5,0,10.9-5.4,10.9-11.8S57.5,8.1,51.1,8.1s-10.9,5.4-10.9,11.8S44.6,31.7,51.1,31.7z"/>
	<path fill="#FFFFFF" d="M93.2,31.6c-0.2,0.2-0.4,0.3-0.5,0.3s-0.4-0.1-0.5-0.3l-8.7-10.7c-0.1-0.1-0.3-0.2-0.4-0.2
		c-0.2,0-0.4,0.2-0.4,0.3v17.3c0,0.5-0.1,0.5-0.5,0.5h-6.5c-0.5,0-0.5-0.1-0.5-0.5v-38C75,0.2,75.2,0,75.4,0c0.1,0,0.3,0,0.5,0.3
		l16.4,20c0.2,0.2,0.2,0.2,0.3,0.2s0.2-0.1,0.3-0.2l16.4-20c0.3-0.3,0.4-0.3,0.5-0.3c0.2,0,0.3,0.2,0.3,0.4v38
		c0,0.5-0.1,0.5-0.5,0.5h-6.5c-0.5,0-0.5-0.1-0.5-0.5V21.1c0-0.2-0.2-0.3-0.4-0.3c-0.1,0-0.3,0.1-0.4,0.2L93.2,31.6z"/>
	<path fill="#FFFFFF" d="M116.7,1.5c0-0.5,0.1-0.5,0.5-0.5h22.1c0.5,0,0.5,0.1,0.5,0.5v6.1c0,0.5-0.1,0.5-0.5,0.5h-14.2
		c-0.5,0-0.5,0.1-0.5,0.5v8.8c0,0.5,0.1,0.5,0.5,0.5h13.7c0.5,0,0.5,0.1,0.5,0.5v6c0,0.5-0.1,0.5-0.5,0.5h-13.7
		c-0.5,0-0.5,0.1-0.5,0.5v5.6c0,0.5,0.1,0.5,0.5,0.5h14.5c0.5,0,0.5,0.1,0.5,0.5v6.1c0,0.5-0.1,0.5-0.5,0.5h-22.4
		c-0.5,0-0.5-0.1-0.5-0.5V1.5z"/>
	<path fill="#FFFFFF" d="M156.5,32.5c2.7,0,4.7-1.6,4.7-3.9c0-7-16.2-5.8-16.2-17.7c0-6,5-10.6,12.2-10.6c4.6,0,9.4,2,11.7,5.4
		c0.1,0.2,0.2,0.3,0.2,0.4s-0.1,0.3-0.3,0.4l-5.3,4c-0.2,0.2-0.3,0.3-0.4,0.3c-0.2,0-0.2-0.1-0.4-0.3c-1-1.8-2.5-3.1-5.3-3.1
		c-2.5,0-4.1,1.5-4.1,3.6c0,6.2,16.4,5.1,16.4,17.6c0,6.4-4.6,11.1-13.1,11.1c-6,0-10.8-3-13.2-6.7c-0.1-0.2-0.2-0.3-0.2-0.4
		c0-0.1,0.1-0.2,0.3-0.4l5.4-4.1c0.2-0.2,0.3-0.2,0.4-0.2c0.2,0,0.2,0.1,0.4,0.3C151.6,31,153.6,32.5,156.5,32.5z"/>
	<path fill="#FFFFFF" d="M171.1,1.5c0-0.5,0.1-0.5,0.5-0.5h23.6c0.5,0,0.5,0.1,0.5,0.5v6.1c0,0.5-0.1,0.5-0.5,0.5h-7.3
		c-0.5,0-0.5,0.1-0.5,0.5v29.7c0,0.5-0.1,0.5-0.5,0.5H180c-0.5,0-0.5-0.1-0.5-0.5V8.6c0-0.5-0.1-0.5-0.5-0.5h-7.3
		c-0.5,0-0.5-0.1-0.5-0.5V1.5z"/>
	<path fill="#FFFFFF" d="M199.4,1.5c0-0.5,0.1-0.5,0.5-0.5h22.1c0.5,0,0.5,0.1,0.5,0.5v6.1c0,0.5-0.1,0.5-0.5,0.5h-14.2
		c-0.5,0-0.5,0.1-0.5,0.5v8.8c0,0.5,0.1,0.5,0.5,0.5h13.7c0.5,0,0.5,0.1,0.5,0.5v6c0,0.5-0.1,0.5-0.5,0.5h-13.7
		c-0.5,0-0.5,0.1-0.5,0.5v5.6c0,0.5,0.1,0.5,0.5,0.5h14.5c0.5,0,0.5,0.1,0.5,0.5v6.1c0,0.5-0.1,0.5-0.5,0.5H200
		c-0.5,0-0.5-0.1-0.5-0.5V1.5z"/>
	<path fill="#FFFFFF" d="M240.7,0.3c0.1-0.2,0.3-0.3,0.6-0.3c0.3,0,0.4,0.1,0.5,0.3l15.8,38c0.1,0.1,0.1,0.3,0.1,0.3
		c0,0.2-0.1,0.2-0.4,0.2h-7.5c-0.4,0-0.5-0.1-0.7-0.5l-1.8-4.8c-0.2-0.5-0.3-0.5-0.6-0.5h-10.8c-0.4,0-0.5,0.1-0.7,0.5l-1.8,4.8
		c-0.2,0.4-0.3,0.5-0.7,0.5h-7.4c-0.3,0-0.4-0.1-0.4-0.2c0-0.1,0.1-0.2,0.1-0.3L240.7,0.3z M241.5,16.7c-0.1-0.1-0.2-0.2-0.3-0.2
		c-0.1,0-0.3,0.1-0.3,0.2l-3.5,9.8c-0.1,0.1-0.1,0.2-0.1,0.3c0,0.2,0.1,0.2,0.4,0.2h7.1c0.3,0,0.4,0,0.4-0.2c0-0.1,0-0.2-0.1-0.3
		L241.5,16.7z"/>
	<path fill="#FFFFFF" d="M271.7,0.9c12.7,0,18.5,8.4,18.5,19c0,11.5-6.8,19-20.2,19h-8.9c-0.5,0-0.5-0.1-0.5-0.5V1.5
		c0-0.5,0.1-0.5,0.5-0.5H271.7z M271.5,8.1H269c-0.5,0-0.5,0.1-0.5,0.5v22.6c0,0.5,0.1,0.5,0.5,0.5h2.5c7.1,0,10.3-4.8,10.3-11.8
		C281.9,12.9,278.8,8.1,271.5,8.1z"/>
</g>
<g>
	<path fill="#FFFFFF" d="M0,69.2C0,58.7,7.3,50,19.2,50c3.1,0,6,0.9,8.5,2.1c0.3,0.2,0.4,0.3,0.4,0.5v5.7c0,0.3-0.1,0.4-0.2,0.4
		c-0.1,0-0.2-0.1-0.3-0.1c-2.2-2.2-5-3.5-8.5-3.5c-8.8,0-13.4,6.8-13.4,14c0,7.2,4.6,14,13.4,14c3.5,0,6.3-1.3,8.5-3.5
		c0.1-0.1,0.2-0.1,0.3-0.1c0.2,0,0.2,0.1,0.2,0.4v5.7c0,0.2-0.2,0.4-0.4,0.5c-2.6,1.3-5.4,2.1-8.5,2.1C7.3,88.4,0,79.6,0,69.2z"/>
	<path fill="#FFFFFF" d="M50.2,88.4c-10.4,0-18.7-8.7-18.7-19.2S39.7,50,50.2,50c10.4,0,18.7,8.7,18.7,19.2S60.6,88.4,50.2,88.4z
		 M50.2,83.2c7.5,0,12.9-6.4,12.9-14s-5.4-14-12.9-14c-7.5,0-12.9,6.4-12.9,14S42.7,83.2,50.2,83.2z"/>
	<path fill="#FFFFFF" d="M92.1,64.6c-0.2,0-0.2,0.1-0.3,0.2l-8,23.7c-0.1,0.2-0.1,0.2-0.3,0.2s-0.2-0.1-0.3-0.2L70.9,51.1
		c-0.1-0.2-0.1-0.3-0.1-0.4c0-0.1,0.1-0.2,0.3-0.2h5c0.3,0,0.5,0.2,0.6,0.5l6.7,22.2c0.1,0.1,0.1,0.2,0.3,0.2c0.1,0,0.2-0.1,0.3-0.2
		l7.6-23c0.2-0.4,0.4-0.5,0.6-0.5s0.5,0.2,0.6,0.5l7.7,23c0.1,0.1,0.1,0.2,0.3,0.2c0.1,0,0.2-0.1,0.3-0.2l6.8-22.2
		c0.2-0.4,0.4-0.5,0.6-0.5h4.8c0.2,0,0.3,0.1,0.3,0.2c0,0.1-0.1,0.2-0.1,0.4l-12.7,37.4c-0.1,0.2-0.1,0.2-0.3,0.2s-0.2-0.1-0.3-0.2
		l-8-23.7C92.3,64.6,92.2,64.6,92.1,64.6z"/>
	<path fill="#FFFFFF" d="M134.2,88.4c-10.4,0-18.7-8.7-18.7-19.2S123.8,50,134.2,50c10.4,0,18.7,8.7,18.7,19.2
		S144.7,88.4,134.2,88.4z M134.2,83.2c7.5,0,12.9-6.4,12.9-14s-5.4-14-12.9-14c-7.5,0-12.9,6.4-12.9,14S126.7,83.2,134.2,83.2z"/>
	<path fill="#FFFFFF" d="M163.6,87.8h-4c-0.5,0-0.6-0.1-0.6-0.5V51.1c0-0.5,0.1-0.5,0.5-0.5h8.5c4,0,7.1,0.9,9.2,2.6
		c2.4,2,3.4,5,3.4,8.4c0,5.4-3.3,9.3-9,10.4c-0.2,0.1-0.2,0.1-0.2,0.2c0,0.1,0.1,0.2,0.1,0.2l11.6,15c0.2,0.3,0.3,0.4,0.3,0.4
		c0,0.1-0.2,0.1-0.5,0.1h-5.3c-0.5,0-0.4-0.1-0.9-0.5l-11.9-15.6c-0.2-0.2-0.3-0.3-0.4-0.3c-0.2,0-0.2,0.2-0.2,0.5v15.4
		C164.1,87.8,164.1,87.8,163.6,87.8z M175.2,61.5c0-4.2-2.7-6.3-6.9-6.3h-3.6c-0.5,0-0.5,0.1-0.5,0.5v11.6c0,0.5,0.1,0.5,0.5,0.5
		h3.8C173.1,67.9,175.2,65.6,175.2,61.5z"/>
	<path fill="#FFFFFF" d="M192.5,87.8h-4.2c-0.5,0-0.5-0.1-0.5-0.5V51.1c0-0.5,0.1-0.5,0.5-0.5h4.2c0.5,0,0.5,0.1,0.5,0.5v14.9
		c0,0.3,0.1,0.4,0.3,0.4c0.2,0,0.4-0.1,0.5-0.3l11.7-15c0.4-0.4,0.4-0.5,0.9-0.5h5.5c0.3,0,0.4,0.1,0.4,0.2c0,0.1-0.1,0.2-0.2,0.4
		l-13,16.5c-0.1,0.1-0.1,0.2-0.1,0.3c0,0.1,0.1,0.2,0.1,0.3l13.6,19.2c0.2,0.3,0.3,0.4,0.3,0.4c0,0.1-0.2,0.1-0.5,0.1H207
		c-0.5,0-0.4-0.1-0.9-0.5l-12.3-17.7c-0.1-0.2-0.3-0.2-0.4-0.2c-0.3,0-0.4,0.1-0.4,0.4v17.5C193,87.8,193,87.8,192.5,87.8z"/>
	<path fill="#FFFFFF" d="M218.3,50.5h4.2c0.5,0,0.5,0.1,0.5,0.5v36.2c0,0.5-0.1,0.5-0.5,0.5h-4.2c-0.5,0-0.5-0.1-0.5-0.5V51.1
		C217.7,50.6,217.8,50.5,218.3,50.5z"/>
	<path fill="#FFFFFF" d="M235.8,64.6c-0.3,0-0.4,0.1-0.4,0.3v22.4c0,0.5-0.1,0.5-0.5,0.5h-3.9c-0.5,0-0.5-0.1-0.5-0.5V50.1
		c0-0.3,0.1-0.4,0.2-0.4c0.1,0,0.2,0.1,0.4,0.3l18,23.6c0.1,0.1,0.2,0.2,0.4,0.2c0.3,0,0.4-0.1,0.4-0.3V51.1c0-0.5,0.1-0.5,0.5-0.5
		h3.9c0.5,0,0.5,0.1,0.5,0.5v37.2c0,0.3-0.1,0.4-0.2,0.4c-0.1,0-0.2-0.1-0.4-0.3l-18-23.6C236.1,64.6,236,64.6,235.8,64.6z"/>
	<path fill="#FFFFFF" d="M266.2,69.2c0,7.5,4.5,14.2,13.6,14.2c1.9,0,3.9-0.2,5.3-0.9c0.2-0.1,0.3-0.2,0.3-0.4v-9
		c0-0.5-0.1-0.5-0.5-0.5h-7c-0.5,0-0.5-0.1-0.5-0.5v-3.7c0-0.5,0.1-0.5,0.5-0.5H290c0.5,0,0.5,0.1,0.5,0.5v16.7
		c0,0.2-0.1,0.4-0.3,0.6c-2.4,2-6.7,2.7-10.3,2.7c-12.1,0-19.4-8.7-19.4-19.2S267.7,50,279.6,50c3.4,0,6.1,0.7,8.7,2.1
		c0.3,0.2,0.4,0.3,0.4,0.5v5.7c0,0.3-0.1,0.4-0.2,0.4c-0.1,0-0.2-0.1-0.3-0.1c-2.2-2.2-5.2-3.5-8.6-3.5
		C270.6,55.2,266.2,61.7,266.2,69.2z"/>
</g>
</svg>
