<?xml version="1.0" encoding="utf-8"?>
<!-- Generator: Adobe Illustrator 18.1.1, SVG Export Plug-In . SVG Version: 6.00 Build 0)  -->
<svg version="1.1" id="Layer_1" xmlns="http://www.w3.org/2000/svg" xmlns:xlink="http://www.w3.org/1999/xlink" x="0px" y="0px"
	 viewBox="0 0 500 150" enable-background="new 0 0 500 150" xml:space="preserve">
<g>
	<polygon points="19.8,63.6 19.8,40.8 7.7,40.8 7.7,102.9 19.8,102.9 19.8,71.9 43.8,71.9 43.8,102.9 55.8,102.9 55.8,40.8 
		43.8,40.8 43.8,63.6 	"/>
	<polygon points="199.9,40.8 199.9,102.9 238,102.9 238,90.9 211.9,90.9 211.9,71.9 230.8,71.9 230.8,63.6 211.9,63.6 211.9,52.8 
		238,52.8 238,40.8 	"/>
	<polygon points="143.1,40.8 131,40.8 131,102.9 143.1,102.9 143.1,59.1 157.8,79.4 172.6,59.1 172.6,102.9 184.6,102.9 184.6,40.8 
		172.6,40.8 157.9,64.5 	"/>
	<polygon points="320.3,52.8 320.3,102.9 332.3,102.9 332.3,52.8 346.2,52.8 346.2,40.8 306.4,40.8 306.4,52.8 	"/>
	<polygon points="359.1,40.8 359.1,102.9 397.1,102.9 397.1,90.9 371.1,90.9 371.1,71.9 390,71.9 390,63.6 371.1,63.6 371.1,52.8 
		397.1,52.8 397.1,40.8 	"/>
	<path d="M435.2,40.8h-2.7h-8.6h-2.6l-12.2,62.1h12.2l2.4-12.3h9l2.4,12.3h12.2L435.2,40.8z M422.7,82.3l5.6-23.5l5.6,23.5H422.7z"
		/>
	<path d="M112.6,47.6c-1.4-2.5-3.3-4.7-5.4-6.4c-3.5-2.8-7.6-3-11.3-3c-0.6,0-1.2,0-1.7,0h-1.7c-0.6,0-1.1,0-1.7,0
		c-3.7,0-7.8,0.1-11.3,3c-2.1,1.8-4,3.9-5.4,6.4C70.6,53.8,71,64.3,71,73.3c0,9-0.3,16.9,3.1,23c1.4,2.5,3.3,4.5,5.4,6.3
		c3.5,2.8,7.6,2.8,11.3,2.8c0.6,0,1.2,0,1.7,0h1.7c0.6,0,1.1,0,1.7,0c3.7,0.1,7.8,0.1,11.3-2.8c2.1-1.8,4-3.8,5.4-6.3
		c3.4-6.2,3.1-14.1,3.1-23C115.7,64.3,116.1,53.8,112.6,47.6z M102.3,88.6c-0.6,1.3-1.5,2.4-2.5,3.3c-1.6,1.5-3.5,1.5-5.2,1.5
		c-0.3,0-0.5,0-0.8,0h-0.8c-0.3,0-0.5,0-0.8,0c-1.7,0-3.6,0-5.2-1.5c-1-0.9-1.9-2-2.5-3.3C82.8,85.3,83,77.9,83,73.2
		c0-4.7-0.2-14.8,1.4-18c0.6-1.3,1.5-2.4,2.5-3.4c1.6-1.5,3.5-1.6,5.2-1.6c0.3,0,0.5,0,0.8,0h0.8c0.3,0,0.5,0,0.8,0
		c1.7,0,3.6,0.1,5.2,1.6c1,0.9,1.9,2.1,2.5,3.4c1.6,3.2,1.4,13.4,1.4,18C103.7,77.9,103.9,85.3,102.3,88.6z"/>
	<path d="M472.4,90.9v-19v-8.3V52.8c0,0,5.6,0,5.8,0c1.7,0,3.6,0.1,5.2,1.6c1,0.9,1.8,2.1,2.5,3.4c1.6,3.2,1.4,9.6,1.4,14.2
		c0,4.7,0.2,10.9-1.4,14.1c-0.6,1.3-1.5,2.4-2.5,3.3c-1.6,1.5-3.5,1.5-5.2,1.5C477.9,90.9,472.4,90.9,472.4,90.9z M479.6,102.9
		c3.7,0.1,7.8,0,11.3-2.8c2.1-1.8,4-3.8,5.4-6.3c3.4-6.2,3.1-12.8,3.1-21.8c0-9,0.3-15.7-3.1-21.9c-1.4-2.5-3.3-4.7-5.4-6.4
		c-3.5-2.8-7.5-3-11.3-3c-0.6,0-19.2,0-19.2,0v62.1C460.4,102.9,479,102.9,479.6,102.9z"/>
	<path d="M273.5,93.4c-0.3,0-2.1,0-2.4,0c-1.7,0-7.7-1.2-8.2-5.9h-12.6c0.6,5.5,4.7,17.8,19.3,17.9c0.6,0,4.6,0,5.2,0
		c3.7,0.1,18-2.1,20-18.5c1.6-13.5-19.1-18.1-19.1-18.1s-13.4-3.2-13.2-10c0.1-2.9,1.2-8.6,8.5-8.6c0.3,0,2.1,0,2.4,0
		c6.4,0,7.9,4,8.4,6.6h12.4c-1.2-18.4-19.4-18.6-19.4-18.6c-0.6,0-4.6,0-5.2,0c0,0-18.8-0.8-19.2,19.4c-0.3,12.3,6.7,18.3,20.2,21.7
		c7.4,1.9,11.6,4.9,10.9,8.3C281.5,87.7,280.5,93.4,273.5,93.4"/>
	<polygon fill="#F7941E" points="4,40.8 0.3,44.5 0.3,110.4 16,110.4 19.8,106.6 4,106.6 	"/>
	<polygon fill="#F7941E" points="196.2,40.8 192.5,44.5 192.5,110.4 234.4,110.4 238.1,106.6 196.2,106.6 	"/>
	<polygon fill="#F7941E" points="40.1,40.8 36.3,44.5 36.3,59.6 40.1,59.6 	"/>
	<polygon fill="#F7941E" points="168.2,40.8 163.1,42 155.6,53.9 157.8,57.4 	"/>
	<polygon fill="#F7941E" points="36.3,110.4 52.1,110.4 55.8,106.6 40.1,106.6 40.1,75.6 23.5,75.6 23.5,79.3 36.3,79.3 	"/>
	<polygon fill="#F7941E" points="417.6,40.8 413.2,43.7 400,110.4 416.9,110.4 420.6,106.6 404.6,106.6 	"/>
	<polygon fill="#F7941E" points="127.3,40.8 123.6,44.5 123.6,110.4 139.4,110.4 143.1,106.6 127.3,106.6 	"/>
	<polygon fill="#F7941E" points="165.2,75.7 165.2,110.4 180.9,110.4 184.6,106.6 168.9,106.6 168.9,70.5 	"/>
	<polygon fill="#F7941E" points="146.8,70.6 146.8,76.9 153.3,85.8 155.5,82.6 	"/>
	<polygon fill="#F7941E" points="238,56.5 234.3,60.3 215.7,60.3 215.7,56.5 	"/>
	<polygon fill="#F7941E" points="312.8,110.4 328.6,110.4 332.3,106.6 316.6,106.6 316.6,56.6 302.7,56.6 302.7,40.8 299,44.5 
		299,60.3 312.8,60.3 	"/>
	<polygon fill="#F7941E" points="346.2,56.6 342.5,60.3 336,60.3 336,56.6 	"/>
	<polygon fill="#F7941E" points="230.8,75.6 227.1,79.3 215.7,79.3 215.7,75.6 	"/>
	<polygon fill="#F7941E" points="432.1,106.6 430,95.9 426.5,95.9 425.8,99.7 426.9,99.7 429,110.4 429,110.4 429,110.4 
		443.7,110.4 447.4,106.6 	"/>
	<polygon fill="#F7941E" points="355.4,40.8 351.7,44.5 351.7,110.4 393.6,110.4 397.3,106.6 355.4,106.6 	"/>
	<polygon fill="#F7941E" points="397.2,56.5 393.4,60.3 374.8,60.3 374.8,56.5 	"/>
	<polygon fill="#F7941E" points="390,75.6 386.3,79.3 374.8,79.3 374.8,75.6 	"/>
	<g>
		<path fill="#F7941E" d="M63.5,76.3l0,2.9c0,0.1,0.1,3,0.4,6.9c0.2,2.6,0.6,5.1,1.2,7.4c0.1,0.2,1,4.8,4.3,9.4
			c4.4,6.2,10.3,9.9,18.3,9.9c0,0,0,0,0.1,0c0,0,6.8,0,7.3,0c0,0,11.3-0.3,14.7-8c-3.2,3.4-8.7,3.9-8.8,3.9l-0.1,0
			c-3.6,0.5-6.6,0.4-6.7,0.4l-6.5,0c0,0,0,0,0,0c-6,0-11-2.7-15.1-8c-3.1-4-3.9-8.4-3.9-8.4c-0.5-2.1-0.9-4.4-1.1-6.8
			c-0.3-3.7-0.3-6.5-0.3-6.6l0-3c0-0.9,0-1.9,0-3c0-2.7,0-5.4,0-8.7l0,0c0,0,0-2.8,0.3-6.6c0.2-2.4,0.6-4.7,1.1-6.8
			c1.3-5,4-9.2,7.4-11.4C65.4,40.8,64,55.2,63.8,57.8c-0.3,3.8-0.3,6.6-0.3,6.8L63.5,76.3z"/>
	</g>
	<path fill="#F7941E" d="M453,110.4V44.5l3.7-3.7v65.8l21.1,0c0,0,3.1,0.1,6.7-0.4l0.1,0c0.1,0,5.5-0.5,8.8-3.9
		c-3.4,7.8-14.6,8-14.6,8C478.2,110.4,453,110.4,453,110.4z"/>
	<path fill="#F7941E" d="M476.1,60.3v-3.7c6.2-0.1,6.8,2.5,7.3,6.3c0.2,1.5,0.2,2.7,0.2,2.7v12.7c0,0,0,1.1-0.2,2.7
		c-0.5,3.8-1,6.5-7.3,6.3c3.9-2,3.8-9.8,3.8-9.9V66.4c0,0,0-1.4-0.2-3.1C479.7,63.3,479.9,60.3,476.1,60.3z"/>
	<path fill="#F7941E" d="M95.4,58.1c1.1,1.6,0.9,5.7,0.9,5.7s0.4,4.8,0,15.9c0,0,0.1,7.9-3.8,9.9c6.2,0.1,6.8-2.5,7.3-6.3
		c0.2-1.5,0.2-2.7,0.2-2.7c0.5-12.1,0-17.7,0-17.7s0-1.1-0.2-2.7c-0.5-3.8-1-6.5-7.3-6.3c0,0-2.7-0.3-4.1,1.7
		C88.4,55.6,93.4,55,95.4,58.1z"/>
	<path fill="#F7941E" d="M280.1,60.6c-1-7.5-8.6-6.8-8.6-6.8s-1.3-0.1-2.7,1.8c0,0,7.9-0.2,7.9,6.9l0,1.8h14l3.7-3.7L280.1,60.6z"/>
	<path fill="#F7941E" d="M266.6,109.2c0,0,6.5,0,6.5,0c0,0,11.3,0.5,15.5-4.3c-4.6,8.3-14.7,8-14.7,8c-0.5,0-7.4,0-7.4,0
		c-18,0-22.5-20.4-22.7-22.4l3-3C246.9,87.5,250.1,109.2,266.6,109.2z"/>
	<path fill="#F7941E" d="M273.2,88.4c-1.1-0.4-1.1-0.4-11.9-4.3c-15.4-5.6-17.9-15.5-18.4-23.7c-0.6-10.1,4.3-20.8,12.2-20.8
		c-3.4,2.2-8.4,8.4-8.4,21.3c0,4.6,2,14.9,15.6,19.7c2.5,0.9,11.6,4.2,11.6,4.2s5,1.7,2.7,3.9c0,0-1.2,1.1-3.5-0.2L273.2,88.4z"/>
</g>
</svg>
