<?xml version="1.0" encoding="utf-8"?>
<!-- Generator: Adobe Illustrator 18.1.1, SVG Export Plug-In . SVG Version: 6.00 Build 0)  -->
<svg version="1.1" id="Layer_1" xmlns="http://www.w3.org/2000/svg" xmlns:xlink="http://www.w3.org/1999/xlink" x="0px" y="0px"
	 viewBox="0 0 500 500" enable-background="new 0 0 500 500" xml:space="preserve">
<polygon fill="#E6E7E8" points="19.8,238.6 19.8,215.8 7.7,215.8 7.7,277.9 19.8,277.9 19.8,246.9 43.8,246.9 43.8,277.9 
	55.8,277.9 55.8,215.8 43.8,215.8 43.8,238.6 "/>
<polygon fill="#E6E7E8" points="199.9,215.8 199.9,277.9 238,277.9 238,265.9 211.9,265.9 211.9,246.9 230.8,246.9 230.8,238.6 
	211.9,238.6 211.9,227.8 238,227.8 238,215.8 "/>
<polygon fill="#E6E7E8" points="143.1,215.8 131,215.8 131,277.9 143.1,277.9 143.1,234.1 157.8,254.4 172.6,234.1 172.6,277.9 
	184.6,277.9 184.6,215.8 172.6,215.8 157.9,239.5 "/>
<polygon fill="#E6E7E8" points="320.3,227.8 320.3,277.9 332.3,277.9 332.3,227.8 346.2,227.8 346.2,215.8 306.4,215.8 306.4,227.8 
	"/>
<polygon fill="#E6E7E8" points="359.1,215.8 359.1,277.9 397.1,277.9 397.1,265.9 371.1,265.9 371.1,246.9 390,246.9 390,238.6 
	371.1,238.6 371.1,227.8 397.1,227.8 397.1,215.8 "/>
<path fill="#E6E7E8" d="M435.2,215.8h-2.7h-8.6h-2.6l-12.2,62.1h12.2l2.4-12.3h9l2.4,12.3h12.2L435.2,215.8z M422.7,257.3l5.6-23.5
	l5.6,23.5H422.7z"/>
<path fill="#E6E7E8" d="M112.6,222.6c-1.4-2.5-3.3-4.7-5.4-6.4c-3.5-2.8-7.6-3-11.3-3c-0.6,0-1.2,0-1.7,0h-1.7c-0.6,0-1.1,0-1.7,0
	c-3.7,0-7.8,0.1-11.3,3c-2.1,1.8-4,3.9-5.4,6.4c-3.5,6.2-3.1,16.7-3.1,25.7c0,9-0.3,16.9,3.1,23c1.4,2.5,3.3,4.5,5.4,6.3
	c3.5,2.8,7.6,2.8,11.3,2.8c0.6,0,1.2,0,1.7,0h1.7c0.6,0,1.1,0,1.7,0c3.7,0.1,7.8,0.1,11.3-2.8c2.1-1.8,4-3.8,5.4-6.3
	c3.4-6.2,3.1-14.1,3.1-23C115.7,239.3,116.1,228.8,112.6,222.6z M102.3,263.6c-0.6,1.3-1.5,2.4-2.5,3.3c-1.6,1.5-3.5,1.5-5.2,1.5
	c-0.3,0-0.5,0-0.8,0H93c-0.3,0-0.5,0-0.8,0c-1.7,0-3.6,0-5.2-1.5c-1-0.9-1.9-2-2.5-3.3c-1.7-3.3-1.5-10.7-1.5-15.4s-0.2-14.8,1.4-18
	c0.6-1.3,1.5-2.4,2.5-3.4c1.6-1.5,3.5-1.6,5.2-1.6c0.3,0,0.5,0,0.8,0h0.8c0.3,0,0.5,0,0.8,0c1.7,0,3.6,0.1,5.2,1.6
	c1,0.9,1.9,2.1,2.5,3.4c1.6,3.2,1.4,13.4,1.4,18C103.7,252.9,103.9,260.3,102.3,263.6z"/>
<path fill="#E6E7E8" d="M472.4,265.9v-19v-8.3v-10.8c0,0,5.6,0,5.8,0c1.7,0,3.6,0.1,5.2,1.6c1,0.9,1.8,2.1,2.5,3.4
	c1.6,3.2,1.4,9.6,1.4,14.2c0,4.7,0.2,10.9-1.4,14.1c-0.6,1.3-1.5,2.4-2.5,3.3c-1.6,1.5-3.5,1.5-5.2,1.5
	C477.9,265.9,472.4,265.9,472.4,265.9z M479.6,277.9c3.7,0.1,7.8,0,11.3-2.8c2.1-1.8,4-3.8,5.4-6.3c3.4-6.2,3.1-12.8,3.1-21.8
	s0.3-15.7-3.1-21.9c-1.4-2.5-3.3-4.7-5.4-6.4c-3.5-2.8-7.5-3-11.3-3c-0.6,0-19.2,0-19.2,0v62.1C460.4,277.9,479,277.9,479.6,277.9z"
	/>
<path fill="#E6E7E8" d="M273.5,268.4c-0.3,0-2.1,0-2.4,0c-1.7,0-7.7-1.2-8.2-5.9h-12.6c0.6,5.5,4.7,17.8,19.3,17.9
	c0.6,0,4.6,0,5.2,0c3.7,0.1,18-2.1,20-18.5c1.6-13.5-19.1-18.1-19.1-18.1s-13.4-3.2-13.2-10c0.1-2.9,1.2-8.6,8.5-8.6
	c0.3,0,2.1,0,2.4,0c6.4,0,7.9,4,8.4,6.6h12.4c-1.2-18.4-19.4-18.6-19.4-18.6c-0.6,0-4.6,0-5.2,0c0,0-18.8-0.8-19.2,19.4
	c-0.3,12.3,6.7,18.3,20.2,21.7c7.4,1.9,11.6,4.9,10.9,8.3C281.5,262.7,280.5,268.4,273.5,268.4"/>
<polygon fill="#F7941E" points="4,215.8 0.3,219.5 0.3,285.4 16,285.4 19.8,281.6 4,281.6 "/>
<polygon fill="#F7941E" points="196.2,215.8 192.5,219.5 192.5,285.4 234.4,285.4 238.1,281.6 196.2,281.6 "/>
<polygon fill="#F7941E" points="40.1,215.8 36.3,219.5 36.3,234.6 40.1,234.6 "/>
<polygon fill="#F7941E" points="168.2,215.8 163.1,217 155.6,228.9 157.8,232.4 "/>
<polygon fill="#F7941E" points="36.3,285.4 52.1,285.4 55.8,281.6 40.1,281.6 40.1,250.6 23.5,250.6 23.5,254.3 36.3,254.3 "/>
<polygon fill="#F7941E" points="417.6,215.8 413.2,218.7 400,285.4 416.9,285.4 420.6,281.6 404.6,281.6 "/>
<polygon fill="#F7941E" points="127.3,215.8 123.6,219.5 123.6,285.4 139.4,285.4 143.1,281.6 127.3,281.6 "/>
<polygon fill="#F7941E" points="165.2,250.7 165.2,285.4 180.9,285.4 184.6,281.6 168.9,281.6 168.9,245.5 "/>
<polygon fill="#F7941E" points="146.8,245.6 146.8,251.9 153.3,260.8 155.5,257.6 "/>
<polygon fill="#F7941E" points="238,231.5 234.3,235.3 215.7,235.3 215.7,231.5 "/>
<polygon fill="#F7941E" points="312.8,285.4 328.6,285.4 332.3,281.6 316.6,281.6 316.6,231.6 302.7,231.6 302.7,215.8 299,219.5 
	299,235.3 312.8,235.3 "/>
<polygon fill="#F7941E" points="346.2,231.6 342.5,235.3 336,235.3 336,231.6 "/>
<polygon fill="#F7941E" points="230.8,250.6 227.1,254.3 215.7,254.3 215.7,250.6 "/>
<polygon fill="#F7941E" points="432.1,281.6 430,270.9 426.5,270.9 425.8,274.7 426.9,274.7 429,285.4 429,285.4 429,285.4 
	443.7,285.4 447.4,281.6 "/>
<polygon fill="#F7941E" points="355.4,215.8 351.7,219.5 351.7,285.4 393.6,285.4 397.3,281.6 355.4,281.6 "/>
<polygon fill="#F7941E" points="397.2,231.5 393.4,235.3 374.8,235.3 374.8,231.5 "/>
<polygon fill="#F7941E" points="390,250.6 386.3,254.3 374.8,254.3 374.8,250.6 "/>
<g>
	<path fill="#F7941E" d="M63.5,251.3v2.9c0,0.1,0.1,3,0.4,6.9c0.2,2.6,0.6,5.1,1.2,7.4c0.1,0.2,1,4.8,4.3,9.4
		c4.4,6.2,10.3,9.9,18.3,9.9c0,0,0,0,0.1,0c0,0,6.8,0,7.3,0c0,0,11.3-0.3,14.7-8c-3.2,3.4-8.7,3.9-8.8,3.9h-0.1
		c-3.6,0.5-6.6,0.4-6.7,0.4h-6.5l0,0c-6,0-11-2.7-15.1-8c-3.1-4-3.9-8.4-3.9-8.4c-0.5-2.1-0.9-4.4-1.1-6.8c-0.3-3.7-0.3-6.5-0.3-6.6
		v-3c0-0.9,0-1.9,0-3c0-2.7,0-5.4,0-8.7l0,0c0,0,0-2.8,0.3-6.6c0.2-2.4,0.6-4.7,1.1-6.8c1.3-5,4-9.2,7.4-11.4
		c-10.7,1-12.1,15.4-12.3,18c-0.3,3.8-0.3,6.6-0.3,6.8V251.3z"/>
</g>
<path fill="#F7941E" d="M453,285.4v-65.9l3.7-3.7v65.8h21.1c0,0,3.1,0.1,6.7-0.4h0.1c0.1,0,5.5-0.5,8.8-3.9c-3.4,7.8-14.6,8-14.6,8
	C478.2,285.4,453,285.4,453,285.4z"/>
<path fill="#F7941E" d="M476.1,235.3v-3.7c6.2-0.1,6.8,2.5,7.3,6.3c0.2,1.5,0.2,2.7,0.2,2.7v12.7c0,0,0,1.1-0.2,2.7
	c-0.5,3.8-1,6.5-7.3,6.3c3.9-2,3.8-9.8,3.8-9.9v-11c0,0,0-1.4-0.2-3.1C479.7,238.3,479.9,235.3,476.1,235.3z"/>
<path fill="#F7941E" d="M95.4,233.1c1.1,1.6,0.9,5.7,0.9,5.7s0.4,4.8,0,15.9c0,0,0.1,7.9-3.8,9.9c6.2,0.1,6.8-2.5,7.3-6.3
	c0.2-1.5,0.2-2.7,0.2-2.7c0.5-12.1,0-17.7,0-17.7s0-1.1-0.2-2.7c-0.5-3.8-1-6.5-7.3-6.3c0,0-2.7-0.3-4.1,1.7
	C88.4,230.6,93.4,230,95.4,233.1z"/>
<path fill="#F7941E" d="M280.1,235.6c-1-7.5-8.6-6.8-8.6-6.8s-1.3-0.1-2.7,1.8c0,0,7.9-0.2,7.9,6.9v1.8h14l3.7-3.7H280.1z"/>
<path fill="#F7941E" d="M266.6,284.2h6.5c0,0,11.3,0.5,15.5-4.3c-4.6,8.3-14.7,8-14.7,8c-0.5,0-7.4,0-7.4,0
	c-18,0-22.5-20.4-22.7-22.4l3-3C246.9,262.5,250.1,284.2,266.6,284.2z"/>
<path fill="#F7941E" d="M273.2,263.4c-1.1-0.4-1.1-0.4-11.9-4.3c-15.4-5.6-17.9-15.5-18.4-23.7c-0.6-10.1,4.3-20.8,12.2-20.8
	c-3.4,2.2-8.4,8.4-8.4,21.3c0,4.6,2,14.9,15.6,19.7c2.5,0.9,11.6,4.2,11.6,4.2s5,1.7,2.7,3.9c0,0-1.2,1.1-3.5-0.2L273.2,263.4z"/>
</svg>
