<?xml version="1.0" encoding="utf-8"?>
<!-- Generator: Adobe Illustrator 18.1.0, SVG Export Plug-In . SVG Version: 6.00 Build 0)  -->
<!DOCTYPE svg PUBLIC "-//W3C//DTD SVG 1.1//EN" "http://www.w3.org/Graphics/SVG/1.1/DTD/svg11.dtd">
<svg version="1.1" id="Layer_1" xmlns="http://www.w3.org/2000/svg" xmlns:xlink="http://www.w3.org/1999/xlink" x="0px" y="0px"
	 viewBox="0 0 792 612" enable-background="new 0 0 792 612" xml:space="preserve">
<g>
	<path fill="#FFFFFF" d="M120.6,182.8c0-1,0.9-1.8,1.8-1.8h9c1.1,0,1.8,0.9,1.8,1.8v25.7H165v-25.7c0-1,0.8-1.8,1.8-1.8h8.9
		c1,0,1.8,0.9,1.8,1.8v64.3c0,1-0.9,1.8-1.8,1.8h-8.9c-1.1,0-1.8-0.9-1.8-1.8v-26.8h-31.7v26.8c0,1-0.8,1.8-1.8,1.8h-9
		c-1,0-1.8-0.9-1.8-1.8V182.8z"/>
	<path fill="#FFFFFF" d="M225.4,180c19.4,0,35,15.6,35,35.1c0,19.4-15.5,34.9-35,34.9s-34.9-15.4-34.9-34.9
		C190.5,195.6,205.9,180,225.4,180z M225.4,237.3c12.2,0,22.3-10,22.3-22.2c0-12.2-10.1-22.4-22.3-22.4s-22.2,10.2-22.2,22.4
		C203.1,227.3,213.1,237.3,225.4,237.3z"/>
	<path fill="#FFFFFF" d="M280.2,181.5c0.1-0.8,0.7-1.5,1.7-1.5h1.6c0.8,0,1.4,0.4,1.7,1l21.4,45.8c0.2,0,0.2,0,0.3,0l21.4-45.8
		c0.3-0.6,0.8-1,1.7-1h1.6c1.1,0,1.6,0.7,1.7,1.5l11.5,65.3c0.3,1.4-0.5,2.2-1.7,2.2H334c-0.9,0-1.7-0.8-1.8-1.5l-5.7-36.8
		c-0.1,0-0.3,0-0.3,0l-17,38.2c-0.2,0.6-0.8,1.1-1.7,1.1h-1.7c-0.9,0-1.4-0.5-1.6-1.1l-17.2-38.2c0,0-0.2,0-0.3,0l-5.6,36.8
		c-0.1,0.7-0.9,1.5-1.7,1.5h-8.7c-1.3,0-2-0.9-1.8-2.2L280.2,181.5z"/>
	<path fill="#FFFFFF" d="M357.9,182.8c0-1,0.8-1.8,1.8-1.8h39.5c1.1,0,1.8,0.9,1.8,1.8v8c0,1-0.8,1.8-1.8,1.8h-28.8v15.9h24
		c1,0,1.8,0.9,1.8,1.8v8.1c0,1.1-0.9,1.8-1.8,1.8h-24v17h28.8c1.1,0,1.8,0.9,1.8,1.8v8c0,1-0.8,1.8-1.8,1.8h-39.5
		c-1.1,0-1.8-0.9-1.8-1.8V182.8z"/>
	<path fill="#FFFFFF" d="M411.1,239.4l3.5-6c0.8-1.4,2.4-1.4,3.3-0.7c0.5,0.3,8.4,6,14.7,6c5.1,0,8.8-3.3,8.8-7.5
		c0-5-4.2-8.4-12.3-11.7c-9.1-3.7-18.3-9.5-18.3-21c0-8.6,6.4-18.6,21.9-18.6c9.9,0,17.5,5,19.4,6.5c1,0.6,1.3,2.2,0.6,3.2l-3.7,5.5
		c-0.8,1.2-2.2,1.9-3.4,1.2c-0.8-0.5-8.2-5.3-13.5-5.3c-5.5,0-8.5,3.7-8.5,6.8c0,4.6,3.6,7.7,11.5,10.9c9.4,3.8,20.3,9.4,20.3,22
		c0,10-8.6,19.2-22.3,19.2c-12.2,0-19.4-5.7-21.4-7.6C410.7,241.5,410.2,241,411.1,239.4z"/>
	<path fill="#FFFFFF" d="M476.9,192.6H462c-1.1,0-1.8-0.9-1.8-1.8v-8c0-1,0.8-1.8,1.8-1.8h42.4c1.1,0,1.8,0.9,1.8,1.8v8
		c0,1-0.8,1.8-1.8,1.8h-14.9v54.5c0,1-0.9,1.8-1.8,1.8h-9c-1,0-1.8-0.9-1.8-1.8V192.6z"/>
	<path fill="#FFFFFF" d="M516.4,182.8c0-1,0.8-1.8,1.8-1.8h39.5c1.1,0,1.8,0.9,1.8,1.8v8c0,1-0.8,1.8-1.8,1.8h-28.8v15.9h24
		c1,0,1.8,0.9,1.8,1.8v8.1c0,1.1-0.9,1.8-1.8,1.8h-24v17h28.8c1.1,0,1.8,0.9,1.8,1.8v8c0,1-0.8,1.8-1.8,1.8h-39.5
		c-1.1,0-1.8-0.9-1.8-1.8V182.8z"/>
	<path fill="#FFFFFF" d="M564.7,246.4l30.2-65.4c0.3-0.6,0.8-1.1,1.6-1.1h1c1,0,1.4,0.5,1.7,1.1l29.9,65.4c0.6,1.3-0.2,2.5-1.7,2.5
		H619c-1.5,0-2.1-0.6-2.8-1.9l-4.8-10.5h-29l-4.8,10.5c-0.4,1-1.3,1.9-2.8,1.9h-8.4C564.9,249,564.2,247.7,564.7,246.4z
		 M606.7,225.8l-9.7-21.4h-0.3l-9.5,21.4H606.7z"/>
	<path fill="#FFFFFF" d="M638,182.8c0-1,0.8-1.8,1.7-1.8h23c18.7,0,34.1,15.3,34.1,33.9c0,18.8-15.3,34.1-34.1,34.1h-23
		c-1,0-1.7-0.9-1.7-1.8V182.8z M661.6,237.1c12.6,0,21.9-9.5,21.9-22.2c0-12.6-9.2-22.1-21.9-22.1h-11.1v44.4H661.6z"/>
</g>
<g>
	<path fill="#FFFFFF" d="M153.8,291c9.4,0,16.1,3.2,22.4,8.6c0.7,0.7,0.8,1.9,0.1,2.6l-2.5,2.5c-0.7,0.9-1.5,0.8-2.4-0.1
		c-4.8-4.2-11.4-7-17.7-7c-14.7,0-25.9,12.3-25.9,26.7c0,14.3,11.2,26.6,25.9,26.6c8.1,0,12.8-3.2,17.7-7c0.9-0.7,1.7-0.6,2.2-0.3
		l2.8,2.5c0.7,0.6,0.6,1.9-0.1,2.5c-6.3,6.1-14.3,9-22.5,9c-18.6,0-33.5-14.8-33.5-33.3C120.4,306,135.3,291,153.8,291z"/>
	<path fill="#FFFFFF" d="M219,291c18.6,0,33.4,14.9,33.4,33.5c0,18.6-14.8,33.3-33.4,33.3c-18.6,0-33.3-14.8-33.3-33.3
		C185.7,306,200.4,291,219,291z M219,351.3c14.7,0,26.9-12.1,26.9-26.8c0-14.8-12.2-27-26.9-27c-14.8,0-26.8,12.2-26.8,27
		C192.2,339.3,204.3,351.3,219,351.3z"/>
	<path fill="#FFFFFF" d="M260.2,294.2c-0.4-1.3,0.4-2.2,1.7-2.2h3.9c0.7,0,1.5,0.6,1.7,1.3l12.9,48.1h0.4l15.5-49.3
		c0.2-0.6,0.7-1,1.6-1h1.7c0.7,0,1.4,0.5,1.6,1l15.8,49.3h0.4l12.6-48.1c0.2-0.6,0.9-1.3,1.7-1.3h3.9c1.3,0,2,0.9,1.7,2.2
		l-17.5,62.3c-0.2,0.7-0.9,1.3-1.7,1.3h-1.5c-0.6,0-1.3-0.5-1.6-1l-16.1-50.2h-0.5l-15.8,50.2c-0.3,0.6-0.9,1-1.6,1h-1.5
		c-0.7,0-1.5-0.6-1.7-1.3L260.2,294.2z"/>
	<path fill="#FFFFFF" d="M378.2,291c18.6,0,33.4,14.9,33.4,33.5c0,18.6-14.8,33.3-33.4,33.3c-18.6,0-33.3-14.8-33.3-33.3
		C344.9,306,359.6,291,378.2,291z M378.2,351.3c14.7,0,26.9-12.1,26.9-26.8c0-14.8-12.2-27-26.9-27c-14.8,0-26.8,12.2-26.8,27
		C351.4,339.3,363.4,351.3,378.2,351.3z"/>
	<path fill="#FFFFFF" d="M425.8,293.7c0-0.9,0.7-1.8,1.8-1.8h24c11.1,0,20.2,8.7,20.2,19.8c0,8.5-5.7,15.7-13.7,18.9l12.7,23.6
		c0.6,1.2,0,2.7-1.6,2.7h-4.7c-0.8,0-1.3-0.5-1.5-0.8l-12.3-24.6h-17.7v23.7c0,0.9-0.8,1.8-1.8,1.8h-3.6c-1,0-1.8-0.8-1.8-1.8V293.7
		z M451.1,325.4c7.1,0,13.4-5.9,13.4-13.5c0-7.1-6.2-13.1-13.4-13.1h-18v26.6H451.1z"/>
	<path fill="#FFFFFF" d="M487.1,294.2c0-1.2,0.9-2.2,2.2-2.2h2.7c1.2,0,2.2,1,2.2,2.2v26.3l28.9-27.6c0.4-0.5,1.2-0.9,1.8-0.9h4.5
		c1.7,0,2.6,1.9,1.1,3.2l-29.3,27.4L532,354c0.6,0.6,0.5,2.9-1.6,2.9h-4.7c-0.6,0-1.5-0.4-1.7-0.6l-29.8-31.1v29.5
		c0,1.2-1,2.2-2.2,2.2h-2.7c-1.3,0-2.2-1-2.2-2.2V294.2z"/>
	<path fill="#FFFFFF" d="M544,293.7c0-0.9,0.8-1.8,1.8-1.8h3.7c0.9,0,1.8,0.8,1.8,1.8v61.4c0,0.9-0.8,1.8-1.8,1.8h-3.7
		c-0.9,0-1.8-0.8-1.8-1.8V293.7z"/>
	<path fill="#FFFFFF" d="M570.2,292.7c0-0.9,0.8-1.7,1.8-1.7h2.3l41.8,52.1c0.1,0,0.1,0,0.2,0v-49.4c0-0.9,0.7-1.8,1.8-1.8h3.2
		c0.9,0,1.8,0.8,1.8,1.8v62.4c0,0.9-0.8,1.7-1.8,1.7h-1.7l-42.6-53.2H577v50.5c0,0.9-0.7,1.8-1.8,1.8H572c-0.9,0-1.8-0.8-1.8-1.8
		V292.7z"/>
	<path fill="#FFFFFF" d="M670.8,291c9.4,0,16.1,3.2,22.4,8.6c0.7,0.7,0.8,1.9,0.1,2.6c-0.8,0.8-1.9,1.8-2.6,2.6
		c-0.8,0.9-1.4,0.8-2.4-0.1c-4.7-4.2-11.4-7.2-17.6-7.2c-14.7,0-25.8,12.2-25.8,26.6c0,14.3,11.1,26.8,25.8,26.8
		c10.2,0,16.7-3.9,16.7-3.9v-13h-10.7c-1,0-1.8-0.7-1.8-1.7V329c0-1,0.7-1.8,1.8-1.8h16c0.9,0,1.7,0.8,1.7,1.8v21.2
		c0,0.5-0.4,1.2-0.7,1.5c0,0-9.5,6.1-22.9,6.1c-18.6,0-33.5-14.8-33.5-33.3C637.3,306,652.3,291,670.8,291z"/>
</g>
</svg>
