<?xml version="1.0" encoding="utf-8"?>
<!-- Generator: Adobe Illustrator 18.1.1, SVG Export Plug-In . SVG Version: 6.00 Build 0)  -->
<svg version="1.1" id="Layer_1" xmlns="http://www.w3.org/2000/svg" xmlns:xlink="http://www.w3.org/1999/xlink" x="0px" y="0px"
	 viewBox="0 0 432 432" enable-background="new 0 0 432 432" xml:space="preserve">
<polygon points="52.7,209.6 52.7,192.8 43.9,192.8 43.9,238.7 52.7,238.7 52.7,215.7 70.5,215.7 70.5,238.7 79.4,238.7 79.4,192.8 
	70.5,192.8 70.5,209.6 "/>
<polygon points="185.9,192.8 185.9,238.7 214,238.7 214,229.8 194.8,229.8 194.8,215.7 208.8,215.7 208.8,209.6 194.8,209.6 
	194.8,201.7 214,201.7 214,192.8 "/>
<polygon points="143.9,192.8 135,192.8 135,238.7 143.9,238.7 143.9,206.3 154.8,221.3 165.7,206.3 165.7,238.7 174.6,238.7 
	174.6,192.8 165.7,192.8 154.8,210.3 "/>
<polygon points="274.9,201.7 274.9,238.7 283.8,238.7 283.8,201.7 294.1,201.7 294.1,192.8 264.6,192.8 264.6,201.7 "/>
<polygon points="303.6,192.8 303.6,238.7 331.7,238.7 331.7,229.8 312.5,229.8 312.5,215.7 326.5,215.7 326.5,209.6 312.5,209.6 
	312.5,201.7 331.7,201.7 331.7,192.8 "/>
<path d="M359.8,192.8h-2h-6.4h-1.9l-9,45.9h9.1l1.8-9.1h6.6l1.8,9.1h9L359.8,192.8z M350.6,223.5l4.2-17.4l4.1,17.4H350.6z"/>
<path d="M121.4,197.8c-1-1.8-2.4-3.4-4-4.7c-2.6-2.1-5.6-2.2-8.4-2.2c-0.4,0-0.9,0-1.3,0h-1.3c-0.4,0-0.8,0-1.3,0
	c-2.8,0-5.8,0.1-8.4,2.2c-1.6,1.3-3,2.9-4,4.7c-2.5,4.6-2.3,12.3-2.3,18.9c0,6.6-0.2,12.5,2.3,17c1,1.8,2.4,3.3,4,4.6
	c2.6,2.1,5.6,2.1,8.3,2.1c0.4,0,0.9,0,1.3,0h1.3c0.4,0,0.8,0,1.3,0c2.8,0,5.8,0,8.3-2.1c1.6-1.3,3-2.8,4-4.6
	c2.5-4.6,2.3-10.4,2.3-17C123.7,210.1,123.9,202.4,121.4,197.8z M113.7,228.1c-0.5,1-1.1,1.8-1.8,2.4c-1.2,1.1-2.6,1.1-3.9,1.1
	c-0.2,0-0.4,0-0.6,0h-0.6c-0.2,0-0.4,0-0.6,0c-1.3,0-2.7,0-3.9-1.1c-0.7-0.7-1.4-1.5-1.8-2.4c-1.2-2.4-1.1-7.9-1.1-11.4
	c0-3.5-0.1-10.9,1.1-13.3c0.5-1,1.1-1.8,1.9-2.5c1.2-1.1,2.6-1.2,3.9-1.1c0.2,0,0.4,0,0.6,0h0.6c0.2,0,0.4,0,0.6,0
	c1.3,0,2.7,0,3.9,1.1c0.7,0.7,1.4,1.5,1.9,2.5c1.2,2.4,1.1,9.9,1.1,13.3C114.8,220.2,114.9,225.7,113.7,228.1z"/>
<path d="M387.4,229.8v-14.1v-6.1v-7.9c0,0,4.1,0,4.3,0c1.3,0,2.7,0,3.9,1.1c0.7,0.7,1.4,1.5,1.8,2.5c1.2,2.4,1.1,7.1,1.1,10.5
	c0,3.5,0.1,8-1.1,10.4c-0.5,1-1.1,1.8-1.8,2.4c-1.2,1.1-2.6,1.1-3.9,1.1C391.4,229.8,387.4,229.8,387.4,229.8z M392.7,238.7
	c2.8,0,5.8,0,8.3-2.1c1.6-1.3,3-2.8,4-4.6c2.5-4.6,2.3-9.5,2.3-16.1c0-6.6,0.3-11.6-2.3-16.2c-1-1.8-2.4-3.4-4-4.7
	c-2.6-2.1-5.6-2.2-8.3-2.2c-0.4,0-14.2,0-14.2,0v45.9C378.5,238.7,392.2,238.7,392.7,238.7z"/>
<path d="M240.3,231.7c-0.2,0-1.6,0-1.8,0c-1.3,0-5.7-0.9-6-4.4h-9.3c0.5,4.1,3.5,13.2,14.3,13.2c0.4,0,3.4,0,3.8,0
	c2.8,0,13.3-1.5,14.8-13.7c1.2-10-14.1-13.4-14.1-13.4s-9.9-2.4-9.7-7.4c0.1-2.1,0.9-6.4,6.3-6.4c0.2,0,1.6,0,1.8,0
	c4.7,0,5.9,3,6.2,4.9h9.2c-0.9-13.6-14.4-13.8-14.4-13.8c-0.4,0-3.4,0-3.8,0c0,0-13.9-0.6-14.2,14.3c-0.2,9.1,4.9,13.5,14.9,16
	c5.4,1.4,8.5,3.6,8,6.2C246.2,227.4,245.5,231.7,240.3,231.7"/>
<polygon fill="#F7941E" points="41.1,192.8 38.4,195.5 38.4,244.2 50,244.2 52.7,241.4 41.1,241.4 "/>
<polygon fill="#F7941E" points="183.2,192.8 180.4,195.5 180.4,244.2 211.4,244.2 214.2,241.4 183.2,241.4 "/>
<polygon fill="#F7941E" points="67.8,192.8 65,195.5 65,206.7 67.8,206.7 "/>
<polygon fill="#F7941E" points="162.5,192.8 158.7,193.7 153.2,202.5 154.8,205.1 "/>
<polygon fill="#F7941E" points="65,244.2 76.6,244.2 79.4,241.4 67.8,241.4 67.8,218.5 55.5,218.5 55.5,221.2 65,221.2 "/>
<polygon fill="#F7941E" points="346.8,192.8 343.6,194.9 333.8,244.2 346.3,244.2 349.1,241.4 337.2,241.4 "/>
<polygon fill="#F7941E" points="132.3,192.8 129.5,195.5 129.5,244.2 141.1,244.2 143.9,241.4 132.3,241.4 "/>
<polygon fill="#F7941E" points="160.2,218.6 160.2,244.2 171.9,244.2 174.6,241.4 163,241.4 163,214.8 "/>
<polygon fill="#F7941E" points="146.6,214.8 146.6,219.4 151.4,226 153.1,223.7 "/>
<polygon fill="#F7941E" points="214.1,204.4 211.3,207.2 197.6,207.2 197.6,204.4 "/>
<polygon fill="#F7941E" points="269.4,244.2 281,244.2 283.8,241.4 272.2,241.4 272.2,204.4 261.9,204.4 261.9,192.8 259.1,195.5 
	259.1,207.2 269.4,207.2 "/>
<polygon fill="#F7941E" points="294.1,204.4 291.3,207.2 286.5,207.2 286.5,204.4 "/>
<polygon fill="#F7941E" points="208.8,218.5 206,221.2 197.6,221.2 197.6,218.5 "/>
<polygon fill="#F7941E" points="357.5,241.4 356,233.5 353.4,233.5 352.9,236.3 353.7,236.3 355.3,244.2 355.3,244.2 355.3,244.2 
	366.1,244.2 368.9,241.4 "/>
<polygon fill="#F7941E" points="300.8,192.8 298.1,195.5 298.1,244.2 329.1,244.2 331.9,241.4 300.8,241.4 "/>
<polygon fill="#F7941E" points="331.7,204.4 329,207.2 315.2,207.2 315.2,204.4 "/>
<polygon fill="#F7941E" points="326.4,218.5 323.7,221.2 315.2,221.2 315.2,218.5 "/>
<g>
	<path fill="#F7941E" d="M85.1,219l0,2.2c0,0.1,0.1,2.2,0.3,5.1c0.2,1.9,0.4,3.8,0.9,5.5c0,0.1,0.8,3.5,3.2,6.9
		c3.3,4.6,7.6,7.3,13.6,7.3c0,0,0,0,0,0c0,0,5,0,5.4,0c0,0,8.3-0.2,10.8-5.9c-2.4,2.5-6.5,2.9-6.5,2.9l-0.1,0
		c-2.6,0.4-4.9,0.3-4.9,0.3l-4.8,0c0,0,0,0,0,0c-4.5,0-8.1-2-11.1-5.9c-2.3-3-2.9-6.2-2.9-6.2c-0.4-1.6-0.7-3.3-0.8-5
		c-0.2-2.7-0.2-4.8-0.2-4.9l0-2.2c0-0.7,0-1.4,0-2.2c0-2,0-4,0-6.5l0,0c0,0,0-2.1,0.2-4.9c0.2-1.8,0.4-3.5,0.8-5
		c0.9-3.7,3-6.8,5.5-8.5c-7.9,0.8-8.9,11.4-9.1,13.3c-0.2,2.8-0.2,4.9-0.2,5.1L85.1,219z"/>
</g>
<path fill="#F7941E" d="M373,244.2v-48.7l2.8-2.8v48.7l15.6,0c0,0,2.3,0.1,4.9-0.3l0.1,0c0,0,4.1-0.4,6.5-2.9
	c-2.5,5.8-10.8,5.9-10.8,5.9C391.6,244.2,373,244.2,373,244.2z"/>
<path fill="#F7941E" d="M390.1,207.2v-2.7c4.6-0.1,5,1.9,5.4,4.7c0.1,1.1,0.1,2,0.1,2v9.4c0,0,0,0.8-0.1,2c-0.4,2.8-0.8,4.8-5.4,4.7
	c2.9-1.4,2.8-7.3,2.8-7.3v-8.1c0,0,0-1-0.2-2.3C392.8,209.4,392.9,207.2,390.1,207.2z"/>
<path fill="#F7941E" d="M108.6,205.5c0.8,1.2,0.6,4.2,0.6,4.2s0.3,3.5,0,11.8c0,0,0.1,5.8-2.8,7.3c4.6,0.1,5-1.9,5.4-4.7
	c0.1-1.1,0.1-2,0.1-2c0.3-8.9,0-13.1,0-13.1s0-0.8-0.1-2c-0.4-2.8-0.8-4.8-5.4-4.7c0,0-2-0.2-3,1.2
	C103.5,203.7,107.2,203.3,108.6,205.5z"/>
<path fill="#F7941E" d="M245.2,207.4c-0.7-5.5-6.4-5-6.4-5s-1-0.1-2,1.3c0,0,5.8-0.1,5.8,5.1l0,1.3h10.3l2.8-2.8L245.2,207.4z"/>
<path fill="#F7941E" d="M235.2,243.3c0,0,4.8,0,4.8,0c0,0,8.4,0.4,11.5-3.2c-3.4,6.2-10.8,5.9-10.8,5.9c-0.4,0-5.4,0-5.4,0
	c-13.3,0-16.6-15.1-16.8-16.5l2.2-2.2C220.6,227.3,223,243.3,235.2,243.3z"/>
<path fill="#F7941E" d="M240.1,228c-0.8-0.3-0.8-0.3-8.8-3.2c-11.4-4.2-13.2-11.5-13.6-17.5c-0.4-7.5,3.2-15.4,9-15.4
	c-2.5,1.6-6.2,6.2-6.2,15.8c0,3.4,1.5,11,11.5,14.6c1.9,0.7,8.6,3.1,8.6,3.1s3.7,1.2,2,2.9C242.8,228.2,241.9,229,240.1,228
	L240.1,228z"/>
</svg>
