<?xml version="1.0" encoding="utf-8"?>
<!-- Generator: Adobe Illustrator 18.1.0, SVG Export Plug-In . SVG Version: 6.00 Build 0)  -->
<!DOCTYPE svg PUBLIC "-//W3C//DTD SVG 1.1//EN" "http://www.w3.org/Graphics/SVG/1.1/DTD/svg11.dtd">
<svg version="1.1" id="Layer_1" xmlns="http://www.w3.org/2000/svg" xmlns:xlink="http://www.w3.org/1999/xlink" x="0px" y="0px"
	 viewBox="0 0 290.7 80.8" enable-background="new 0 0 290.7 80.8" xml:space="preserve">
<g>
	<path fill="#FFFFFF" d="M27.2,38.4c0,0.5-0.1,0.5-0.5,0.5h-6.8c-0.5,0-0.5-0.1-0.5-0.5V25.8c0-0.5-0.1-0.5-0.5-0.5H8.5
		c-0.5,0-0.5,0.1-0.5,0.5v12.6c0,0.5-0.1,0.5-0.5,0.5H0.5c-0.5,0-0.5-0.1-0.5-0.5V1.5C0,1,0.1,0.9,0.5,0.9h6.8
		c0.5,0,0.5,0.1,0.5,0.5v16.2c0,0.5,0.1,0.5,0.5,0.5h10.3c0.5,0,0.5-0.1,0.5-0.5V1.5c0-0.5,0.1-0.5,0.5-0.5h6.8
		c0.5,0,0.5,0.1,0.5,0.5V38.4z"/>
	<path fill="#FFFFFF" d="M51.1,39.6c-10.7,0-19.2-9-19.2-19.7S40.3,0.2,51.1,0.2c10.7,0,19.2,9,19.2,19.7S61.8,39.6,51.1,39.6z
		 M51.1,31.7c6.5,0,10.9-5.4,10.9-11.8S57.5,8.1,51.1,8.1s-10.9,5.4-10.9,11.8S44.6,31.7,51.1,31.7z"/>
	<path fill="#FFFFFF" d="M93.2,31.6c-0.2,0.2-0.4,0.3-0.5,0.3s-0.4-0.1-0.5-0.3l-8.7-10.7c-0.1-0.1-0.3-0.2-0.4-0.2
		c-0.2,0-0.4,0.2-0.4,0.3v17.3c0,0.5-0.1,0.5-0.5,0.5h-6.5c-0.5,0-0.5-0.1-0.5-0.5v-38C75,0.2,75.2,0,75.4,0c0.1,0,0.3,0,0.5,0.3
		l16.4,20c0.2,0.2,0.2,0.2,0.3,0.2s0.2-0.1,0.3-0.2l16.4-20c0.3-0.3,0.4-0.3,0.5-0.3c0.2,0,0.3,0.2,0.3,0.4v38
		c0,0.5-0.1,0.5-0.5,0.5h-6.5c-0.5,0-0.5-0.1-0.5-0.5V21.1c0-0.2-0.2-0.3-0.4-0.3c-0.1,0-0.3,0.1-0.4,0.2L93.2,31.6z"/>
	<path fill="#FFFFFF" d="M116.7,1.5c0-0.5,0.1-0.5,0.5-0.5h22.1c0.5,0,0.5,0.1,0.5,0.5v6.1c0,0.5-0.1,0.5-0.5,0.5h-14.2
		c-0.5,0-0.5,0.1-0.5,0.5v8.8c0,0.5,0.1,0.5,0.5,0.5h13.7c0.5,0,0.5,0.1,0.5,0.5v6c0,0.5-0.1,0.5-0.5,0.5h-13.7
		c-0.5,0-0.5,0.1-0.5,0.5v5.6c0,0.5,0.1,0.5,0.5,0.5h14.5c0.5,0,0.5,0.1,0.5,0.5v6.1c0,0.5-0.1,0.5-0.5,0.5h-22.4
		c-0.5,0-0.5-0.1-0.5-0.5V1.5z"/>
	<path fill="#FFFFFF" d="M156.5,32.5c2.7,0,4.7-1.6,4.7-3.9c0-7-16.2-5.8-16.2-17.7c0-6,5-10.6,12.2-10.6c4.6,0,9.4,2,11.7,5.4
		c0.1,0.2,0.2,0.3,0.2,0.4s-0.1,0.3-0.3,0.4l-5.3,4c-0.2,0.2-0.3,0.3-0.4,0.3c-0.2,0-0.2-0.1-0.4-0.3c-1-1.8-2.5-3.1-5.3-3.1
		c-2.5,0-4.1,1.5-4.1,3.6c0,6.2,16.4,5.1,16.4,17.6c0,6.4-4.6,11.1-13.1,11.1c-6,0-10.8-3-13.2-6.7c-0.1-0.2-0.2-0.3-0.2-0.4
		c0-0.1,0.1-0.2,0.3-0.4l5.4-4.1c0.2-0.2,0.3-0.2,0.4-0.2c0.2,0,0.2,0.1,0.4,0.3C151.6,31,153.6,32.5,156.5,32.5z"/>
	<path fill="#FFFFFF" d="M171.1,1.5c0-0.5,0.1-0.5,0.5-0.5h23.6c0.5,0,0.5,0.1,0.5,0.5v6.1c0,0.5-0.1,0.5-0.5,0.5h-7.3
		c-0.5,0-0.5,0.1-0.5,0.5v29.7c0,0.5-0.1,0.5-0.5,0.5H180c-0.5,0-0.5-0.1-0.5-0.5V8.6c0-0.5-0.1-0.5-0.5-0.5h-7.3
		c-0.5,0-0.5-0.1-0.5-0.5V1.5z"/>
	<path fill="#FFFFFF" d="M199.4,1.5c0-0.5,0.1-0.5,0.5-0.5h22.1c0.5,0,0.5,0.1,0.5,0.5v6.1c0,0.5-0.1,0.5-0.5,0.5h-14.2
		c-0.5,0-0.5,0.1-0.5,0.5v8.8c0,0.5,0.1,0.5,0.5,0.5h13.7c0.5,0,0.5,0.1,0.5,0.5v6c0,0.5-0.1,0.5-0.5,0.5h-13.7
		c-0.5,0-0.5,0.1-0.5,0.5v5.6c0,0.5,0.1,0.5,0.5,0.5h14.5c0.5,0,0.5,0.1,0.5,0.5v6.1c0,0.5-0.1,0.5-0.5,0.5H200
		c-0.5,0-0.5-0.1-0.5-0.5V1.5z"/>
	<path fill="#FFFFFF" d="M240.7,0.3c0.1-0.2,0.3-0.3,0.6-0.3c0.3,0,0.4,0.1,0.5,0.3l15.8,38c0.1,0.1,0.1,0.3,0.1,0.3
		c0,0.2-0.1,0.2-0.4,0.2h-7.5c-0.4,0-0.5-0.1-0.7-0.5l-1.8-4.8c-0.2-0.5-0.3-0.5-0.6-0.5h-10.8c-0.4,0-0.5,0.1-0.7,0.5l-1.8,4.8
		c-0.2,0.4-0.3,0.5-0.7,0.5h-7.4c-0.3,0-0.4-0.1-0.4-0.2c0-0.1,0.1-0.2,0.1-0.3L240.7,0.3z M241.5,16.7c-0.1-0.1-0.2-0.2-0.3-0.2
		c-0.1,0-0.3,0.1-0.3,0.2l-3.5,9.8c-0.1,0.1-0.1,0.2-0.1,0.3c0,0.2,0.1,0.2,0.4,0.2h7.1c0.3,0,0.4,0,0.4-0.2c0-0.1,0-0.2-0.1-0.3
		L241.5,16.7z"/>
	<path fill="#FFFFFF" d="M271.7,0.9c12.7,0,18.5,8.4,18.5,19c0,11.5-6.8,19-20.2,19h-8.9c-0.5,0-0.5-0.1-0.5-0.5V1.5
		c0-0.5,0.1-0.5,0.5-0.5H271.7z M271.5,8.1H269c-0.5,0-0.5,0.1-0.5,0.5v22.6c0,0.5,0.1,0.5,0.5,0.5h2.5c7.1,0,10.3-4.8,10.3-11.8
		C281.9,12.9,278.8,8.1,271.5,8.1z"/>
</g>
<g>
	<path fill="#FFFFFF" d="M0.4,65.7c0-8.1,5.6-14.8,14.8-14.8c2.4,0,4.6,0.7,6.6,1.6c0.2,0.1,0.3,0.2,0.3,0.4v4.4
		c0,0.2,0,0.3-0.2,0.3c-0.1,0-0.2,0-0.2-0.1c-1.7-1.7-3.9-2.7-6.5-2.7c-6.8,0-10.4,5.3-10.4,10.8c0,5.6,3.6,10.8,10.4,10.8
		c2.7,0,4.9-1,6.5-2.7c0,0,0.1-0.1,0.2-0.1c0.1,0,0.2,0.1,0.2,0.3v4.4c0,0.2-0.1,0.3-0.3,0.4c-2,1-4.2,1.6-6.6,1.6
		C6.1,80.5,0.4,73.8,0.4,65.7z"/>
	<path fill="#FFFFFF" d="M47.4,80.5c-8.1,0-14.4-6.8-14.4-14.8c0-8.1,6.3-14.8,14.4-14.8c8.1,0,14.4,6.8,14.4,14.8
		C61.8,73.8,55.5,80.5,47.4,80.5z M47.4,76.6c5.8,0,10-5,10-10.8c0-5.8-4.2-10.8-10-10.8s-10,5-10,10.8
		C37.5,71.6,41.6,76.6,47.4,76.6z"/>
	<path fill="#FFFFFF" d="M88.1,62.2c-0.1,0-0.2,0-0.2,0.1l-6.2,18.3c0,0.1-0.1,0.2-0.2,0.2c-0.1,0-0.2,0-0.2-0.2l-9.6-28.9
		c0-0.1-0.1-0.2-0.1-0.3c0-0.1,0.1-0.1,0.2-0.1h3.9c0.2,0,0.4,0.1,0.5,0.4l5.2,17.1c0,0.1,0.1,0.1,0.2,0.1c0.1,0,0.2,0,0.2-0.1
		l5.9-17.7c0.1-0.3,0.3-0.4,0.5-0.4c0.2,0,0.4,0.1,0.5,0.4l5.9,17.7c0,0.1,0.1,0.1,0.2,0.1c0.1,0,0.2,0,0.2-0.1l5.3-17.1
		c0.1-0.3,0.3-0.4,0.5-0.4h3.7c0.2,0,0.2,0,0.2,0.1c0,0.1,0,0.2-0.1,0.3l-9.8,28.9c0,0.1-0.1,0.2-0.2,0.2c-0.1,0-0.2,0-0.2-0.2
		l-6.2-18.3C88.2,62.2,88.2,62.2,88.1,62.2z"/>
	<path fill="#FFFFFF" d="M128.8,80.5c-8.1,0-14.4-6.8-14.4-14.8c0-8.1,6.3-14.8,14.4-14.8c8.1,0,14.4,6.8,14.4,14.8
		C143.2,73.8,136.9,80.5,128.8,80.5z M128.8,76.6c5.8,0,10-5,10-10.8c0-5.8-4.2-10.8-10-10.8c-5.8,0-10,5-10,10.8
		C118.8,71.6,123,76.6,128.8,76.6z"/>
	<path fill="#FFFFFF" d="M159.7,80.1h-3.1c-0.4,0-0.5,0-0.5-0.4v-28c0-0.4,0-0.4,0.4-0.4h6.5c3.1,0,5.5,0.7,7.1,2
		c1.9,1.5,2.6,3.8,2.6,6.5c0,4.2-2.6,7.2-7,8c-0.1,0-0.2,0.1-0.2,0.2c0,0,0,0.1,0.1,0.2l8.9,11.6c0.1,0.2,0.2,0.3,0.2,0.3
		c0,0-0.1,0.1-0.4,0.1h-4.1c-0.4,0-0.3,0-0.7-0.4l-9.2-12c-0.1-0.2-0.2-0.2-0.3-0.2c-0.1,0-0.2,0.1-0.2,0.4v11.9
		C160.1,80.1,160.1,80.1,159.7,80.1z M168.7,59.8c0-3.3-2.1-4.9-5.4-4.9h-2.8c-0.4,0-0.4,0-0.4,0.4v9c0,0.4,0,0.4,0.4,0.4h2.9
		C167.1,64.7,168.7,62.9,168.7,59.8z"/>
	<path fill="#FFFFFF" d="M190.3,80.1h-3.2c-0.4,0-0.4,0-0.4-0.4v-28c0-0.4,0-0.4,0.4-0.4h3.2c0.4,0,0.4,0,0.4,0.4v11.5
		c0,0.2,0.1,0.3,0.2,0.3c0.2,0,0.3-0.1,0.4-0.2l9.1-11.6c0.3-0.3,0.3-0.4,0.7-0.4h4.3c0.2,0,0.3,0,0.3,0.1c0,0,0,0.1-0.2,0.3
		l-10,12.7c0,0-0.1,0.1-0.1,0.2s0,0.2,0.1,0.2l10.5,14.9c0.1,0.2,0.2,0.3,0.2,0.3c0,0-0.1,0.1-0.4,0.1h-4.3c-0.4,0-0.3,0-0.7-0.4
		l-9.5-13.7c-0.1-0.1-0.2-0.2-0.3-0.2c-0.2,0-0.3,0.1-0.3,0.3v13.5C190.7,80.1,190.7,80.1,190.3,80.1z"/>
	<path fill="#FFFFFF" d="M218.4,51.3h3.2c0.4,0,0.4,0,0.4,0.4v28c0,0.4,0,0.4-0.4,0.4h-3.2c-0.4,0-0.4,0-0.4-0.4v-28
		C218,51.4,218,51.3,218.4,51.3z"/>
	<path fill="#FFFFFF" d="M240.2,62.2c-0.2,0-0.3,0.1-0.3,0.2v17.3c0,0.4,0,0.4-0.4,0.4h-3c-0.4,0-0.4,0-0.4-0.4V51
		c0-0.2,0-0.3,0.1-0.3c0.1,0,0.2,0,0.3,0.2l13.9,18.2c0.1,0.1,0.2,0.1,0.3,0.1c0.2,0,0.3-0.1,0.3-0.2V51.7c0-0.4,0-0.4,0.4-0.4h3
		c0.4,0,0.4,0,0.4,0.4v28.7c0,0.2,0,0.3-0.1,0.3s-0.2-0.1-0.3-0.2l-13.9-18.2C240.4,62.2,240.3,62.2,240.2,62.2z"/>
	<path fill="#FFFFFF" d="M271.9,65.7c0,5.8,3.5,11,10.5,11c1.4,0,3-0.2,4.1-0.7c0.1,0,0.2-0.2,0.2-0.3v-7c0-0.4,0-0.4-0.4-0.4h-5.4
		c-0.4,0-0.4,0-0.4-0.4v-2.8c0-0.4,0-0.4,0.4-0.4h9.3c0.4,0,0.4,0,0.4,0.4V78c0,0.2-0.1,0.3-0.2,0.5c-1.9,1.5-5.2,2.1-8,2.1
		c-9.3,0-15-6.8-15-14.8c0-8.1,5.6-14.8,14.8-14.8c2.6,0,4.7,0.5,6.7,1.6c0.2,0.1,0.3,0.2,0.3,0.4v4.4c0,0.2,0,0.3-0.2,0.3
		c-0.1,0-0.2,0-0.2-0.1c-1.7-1.7-4-2.7-6.7-2.7C275.3,54.9,271.9,60,271.9,65.7z"/>
</g>
</svg>
